<svg width="20" height="19" viewBox="0 0 20 19" fill="none" xmlns="http://www.w3.org/2000/svg">
<path d="M15.3925 19C17.5942 19 19.3804 17.2099 19.3804 15.0082V3.99182C19.3804 1.79011 17.5903 0 15.3925 0H4.37613C2.17441 0 0.388184 1.79011 0.388184 3.99182V6.25567C0.388184 6.62457 0.687182 6.91968 1.05219 6.91968C1.42109 6.91968 1.72009 6.62068 1.72009 6.25567V3.99182C1.72009 2.5279 2.9122 1.3319 4.37613 1.3319H15.3925C16.8564 1.3319 18.0485 2.52401 18.0485 3.99182V15.0082C18.0485 16.4721 16.8564 17.6681 15.3925 17.6681H4.37613C2.9122 17.6681 1.72009 16.476 1.72009 15.0082V12.7715C1.72009 12.4026 1.42109 12.1036 1.05219 12.1036C0.683299 12.1036 0.388184 12.4026 0.388184 12.7715V15.0082C0.388184 17.2099 2.17829 19 4.37613 19H15.3925Z" fill="#202020"/>
</svg>
