<svg width="7" height="28" viewBox="0 0 7 28" fill="none" xmlns="http://www.w3.org/2000/svg">
<path d="M0.422974 23.8343C0.422974 22.0656 1.86189 20.6267 3.63055 20.6267C5.39921 20.6267 6.83813 22.0656 6.83813 23.8343C6.83813 25.6029 5.39921 27.0419 3.63055 27.0419C1.86189 27.0419 0.422974 25.6029 0.422974 23.8343Z" fill="white"/>
<path d="M0.422974 3.67242C0.422974 1.90376 1.86189 0.464844 3.63055 0.464844C5.39921 0.464844 6.83813 1.90376 6.83813 3.67242C6.83813 5.44108 5.39921 6.88 3.63055 6.88C1.86189 6.88 0.422974 5.44108 0.422974 3.67242Z" fill="white"/>
<path d="M0.422974 13.7535C0.422974 11.9848 1.86189 10.5459 3.63055 10.5459C5.39921 10.5459 6.83813 11.9848 6.83813 13.7535C6.83813 15.5221 5.39921 16.9611 3.63055 16.9611C1.86189 16.9611 0.422974 15.5221 0.422974 13.7535Z" fill="white"/>
</svg>
