<svg width="8" height="13" viewBox="0 0 8 13" fill="none" xmlns="http://www.w3.org/2000/svg">
<path d="M6.92905 5.9977L6.92905 5.9977C7.06096 6.13133 7.13463 6.312 7.13463 6.49988C7.13463 6.68767 7.06104 6.86839 6.92908 7.00203C6.92907 7.00203 6.92907 7.00204 6.92906 7.00205L1.99319 12.0022L1.85145 11.8622L1.99319 12.0022C1.71761 12.2813 1.26968 12.2813 0.994095 12.0022C0.99409 12.0022 0.994086 12.0022 0.994082 12.0022L1.14461 11.8536L6.92905 5.9977ZM6.92905 5.9977L1.99315 0.997838L6.92905 5.9977ZM1.13221 1.86576L0.994036 2.00216C0.719936 1.7245 0.719986 1.27545 0.994036 0.997838C1.26962 0.71867 1.71756 0.718669 1.99315 0.997836L1.13221 1.86576ZM1.13221 1.86576L0.994038 2.00216L5.43419 6.49989L1.13221 1.86576Z" fill="white" stroke="white" stroke-width="0.423077"/>
</svg>
